<svg xmlns="http://www.w3.org/2000/svg" width="177.438" height="132.764" viewBox="0 0 177.438 132.764">
  <g id="Group_826" data-name="Group 826" style="mix-blend-mode: multiply;isolation: isolate">
    <g id="Group_749" data-name="Group 749">
      <g id="Group_748" data-name="Group 748">
        <g id="Group_696" data-name="Group 696" transform="translate(0.651)">
          <g id="Group_695" data-name="Group 695">
            <g id="Group_694" data-name="Group 694">
              <g id="Group_693" data-name="Group 693">
                <g id="Group_692" data-name="Group 692">
                  <path id="Path_4440" data-name="Path 4440" d="M363.891,68.905V201.018H193.252L187.1,69.828Z" transform="translate(-187.104 -68.905)" fill="#e0e0e0"/>
                </g>
              </g>
            </g>
          </g>
        </g>
        <g id="Group_705" data-name="Group 705" transform="translate(0 0.115)">
          <g id="Group_700" data-name="Group 700" transform="translate(0.651 0.651)">
            <g id="Group_699" data-name="Group 699">
              <g id="Group_698" data-name="Group 698">
                <g id="Group_697" data-name="Group 697">
                  <rect id="Rectangle_488" data-name="Rectangle 488" width="170.639" height="131.347" fill="#f5f5f5"/>
                </g>
              </g>
            </g>
          </g>
          <g id="Group_704" data-name="Group 704">
            <g id="Group_703" data-name="Group 703">
              <g id="Group_702" data-name="Group 702">
                <g id="Group_701" data-name="Group 701">
                  <path id="Path_4441" data-name="Path 4441" d="M358.678,201.619H186.736V68.97H358.678Zm-170.64-1.3H357.375V70.272H188.038V200.317Z" transform="translate(-186.736 -68.97)" fill="#e0e0e0"/>
                </g>
              </g>
            </g>
          </g>
        </g>
        <g id="Group_717" data-name="Group 717" transform="translate(18.795 13.959)">
          <g id="Group_710" data-name="Group 710" transform="translate(0.338 0.306)">
            <g id="Group_709" data-name="Group 709">
              <g id="Group_708" data-name="Group 708">
                <g id="Group_707" data-name="Group 707">
                  <g id="Group_706" data-name="Group 706">
                    <rect id="Rectangle_489" data-name="Rectangle 489" width="133.677" height="100.56" fill="#fff"/>
                  </g>
                </g>
              </g>
            </g>
          </g>
          <g id="Group_716" data-name="Group 716">
            <g id="Group_715" data-name="Group 715">
              <g id="Group_714" data-name="Group 714">
                <g id="Group_713" data-name="Group 713">
                  <g id="Group_712" data-name="Group 712">
                    <g id="Group_711" data-name="Group 711">
                      <path id="Path_4442" data-name="Path 4442" d="M331.375,77.1s-.225.012-.647.018q-.658.005-1.88.018l-7.28.037c-6.369.018-15.657.046-27.418.081l-96.449.152.306-.306c.009,30.163.021,64.4.034,100.548v.011l-.34-.338,133.677.06-.278.278c.06-30.389.111-55.493.145-73.018.032-8.768.055-15.636.071-20.332.014-2.335.025-4.127.034-5.354s.027-1.854.027-1.854.021.6.032,1.8c.007,1.215.018,2.989.032,5.3.018,4.682.041,11.529.073,20.268.035,17.569.085,42.732.145,73.193v.278h-.279c-37.753.016-83.9.037-133.677.06h-.338v-.35c.011-36.148.023-70.385.034-100.548V76.8h.306c39.647.064,73.093.115,96.649.152l27.347.081,7.22.037,1.847.018C331.175,77.091,331.375,77.1,331.375,77.1Z" transform="translate(-197.362 -76.797)" fill="#e0e0e0"/>
                    </g>
                  </g>
                </g>
              </g>
            </g>
          </g>
        </g>
        <g id="Group_723" data-name="Group 723" transform="translate(0.649 0.456)">
          <g id="Group_722" data-name="Group 722">
            <g id="Group_721" data-name="Group 721">
              <g id="Group_720" data-name="Group 720">
                <g id="Group_719" data-name="Group 719">
                  <g id="Group_718" data-name="Group 718">
                    <path id="Path_4443" data-name="Path 4443" d="M187.1,69.169a16.756,16.756,0,0,1,2.885,1.772c1.732,1.167,4.1,2.818,6.665,4.712s4.832,3.686,6.437,5.027a16.073,16.073,0,0,1,2.5,2.292,17.738,17.738,0,0,1-2.791-1.916L196.253,76.2l-6.539-4.868A16.881,16.881,0,0,1,187.1,69.169Z" transform="translate(-187.103 -69.163)" fill="#e0e0e0"/>
                  </g>
                </g>
              </g>
            </g>
          </g>
        </g>
        <g id="Group_729" data-name="Group 729" transform="translate(152.628 0.489)">
          <g id="Group_728" data-name="Group 728" transform="translate(0 0)">
            <g id="Group_727" data-name="Group 727">
              <g id="Group_726" data-name="Group 726">
                <g id="Group_725" data-name="Group 725">
                  <g id="Group_724" data-name="Group 724">
                    <ellipse id="Ellipse_121" data-name="Ellipse 121" cx="11.444" cy="0.34" rx="11.444" ry="0.34" transform="translate(0 13.499) rotate(-36.141)" fill="#e0e0e0"/>
                  </g>
                </g>
              </g>
            </g>
          </g>
        </g>
        <g id="Group_741" data-name="Group 741" transform="translate(151.915 114.589)">
          <g id="Group_734" data-name="Group 734" transform="translate(0.215 0.235)">
            <g id="Group_733" data-name="Group 733">
              <g id="Group_732" data-name="Group 732">
                <g id="Group_731" data-name="Group 731">
                  <g id="Group_730" data-name="Group 730">
                    <line id="Line_40" data-name="Line 40" x1="19.161" y1="17.29" fill="#fff"/>
                  </g>
                </g>
              </g>
            </g>
          </g>
          <g id="Group_740" data-name="Group 740" transform="translate(0 0)">
            <g id="Group_739" data-name="Group 739">
              <g id="Group_738" data-name="Group 738">
                <g id="Group_737" data-name="Group 737">
                  <g id="Group_736" data-name="Group 736">
                    <g id="Group_735" data-name="Group 735">
                      <ellipse id="Ellipse_122" data-name="Ellipse 122" cx="12.905" cy="0.34" rx="12.905" ry="0.34" transform="translate(19.161 17.794) rotate(-137.939)" fill="#e0e0e0"/>
                    </g>
                  </g>
                </g>
              </g>
            </g>
          </g>
        </g>
        <g id="Group_747" data-name="Group 747" transform="translate(0.444 115.349)">
          <g id="Group_746" data-name="Group 746" transform="translate(0 0)">
            <g id="Group_745" data-name="Group 745">
              <g id="Group_744" data-name="Group 744">
                <g id="Group_743" data-name="Group 743">
                  <g id="Group_742" data-name="Group 742">
                    <ellipse id="Ellipse_123" data-name="Ellipse 123" cx="12.321" cy="0.34" rx="12.321" ry="0.34" transform="translate(18.747 0.504) rotate(137.931)" fill="#e0e0e0"/>
                  </g>
                </g>
              </g>
            </g>
          </g>
        </g>
      </g>
    </g>
    <g id="Group_754" data-name="Group 754" transform="translate(57.848 32.455)">
      <g id="Group_753" data-name="Group 753">
        <g id="Group_752" data-name="Group 752">
          <g id="Group_751" data-name="Group 751">
            <g id="Group_750" data-name="Group 750">
              <ellipse id="Ellipse_124" data-name="Ellipse 124" cx="29.535" cy="0.35" rx="29.535" ry="0.35" fill="#e0e0e0"/>
            </g>
          </g>
        </g>
      </g>
    </g>
    <g id="Group_759" data-name="Group 759" transform="translate(41.718 65.706)">
      <g id="Group_758" data-name="Group 758">
        <g id="Group_757" data-name="Group 757">
          <g id="Group_756" data-name="Group 756">
            <g id="Group_755" data-name="Group 755">
              <ellipse id="Ellipse_125" data-name="Ellipse 125" cx="44.253" cy="0.35" rx="44.253" ry="0.35" fill="#e0e0e0"/>
            </g>
          </g>
        </g>
      </g>
    </g>
    <g id="Group_764" data-name="Group 764" transform="translate(41.718 73.917)">
      <g id="Group_763" data-name="Group 763">
        <g id="Group_762" data-name="Group 762">
          <g id="Group_761" data-name="Group 761">
            <g id="Group_760" data-name="Group 760">
              <ellipse id="Ellipse_126" data-name="Ellipse 126" cx="44.253" cy="0.352" rx="44.253" ry="0.352" fill="#e0e0e0"/>
            </g>
          </g>
        </g>
      </g>
    </g>
    <g id="Group_798" data-name="Group 798" transform="translate(37.335 44.03)">
      <g id="Group_767" data-name="Group 767">
        <g id="Group_766" data-name="Group 766">
          <g id="Group_765" data-name="Group 765">
            <path id="Path_4444" data-name="Path 4444" d="M207.844,99.115a5.288,5.288,0,0,1,5.623-5.317,5.4,5.4,0,0,1,4.4,1.928l-1.841,1.664a3.018,3.018,0,0,0-2.409-1.2,2.922,2.922,0,0,0,0,5.842,3.02,3.02,0,0,0,2.409-1.2l1.841,1.666a5.4,5.4,0,0,1-4.4,1.928A5.285,5.285,0,0,1,207.844,99.115Z" transform="translate(-207.844 -93.798)" fill="#e0e0e0"/>
          </g>
        </g>
      </g>
      <g id="Group_770" data-name="Group 770" transform="translate(11.306 0.205)">
        <g id="Group_769" data-name="Group 769">
          <g id="Group_768" data-name="Group 768">
            <path id="Path_4445" data-name="Path 4445" d="M222.445,101.9v2.236h-8.209V93.914h8.018v2.234H217.1v1.725h4.542v2.161H217.1v1.87Z" transform="translate(-214.236 -93.914)" fill="#e0e0e0"/>
          </g>
        </g>
      </g>
      <g id="Group_773" data-name="Group 773" transform="translate(21.123 0.205)">
        <g id="Group_772" data-name="Group 772">
          <g id="Group_771" data-name="Group 771">
            <path id="Path_4446" data-name="Path 4446" d="M224.256,101.422h-1.578v2.717h-2.892V93.914h4.675c2.789,0,4.542,1.445,4.542,3.783a3.391,3.391,0,0,1-2,3.228l2.206,3.214h-3.1Zm.032-5.23H222.68v2.995h1.608c1.2,0,1.8-.555,1.8-1.489C226.083,96.748,225.483,96.192,224.288,96.192Z" transform="translate(-219.786 -93.914)" fill="#e0e0e0"/>
          </g>
        </g>
      </g>
      <g id="Group_776" data-name="Group 776" transform="translate(30.824 0.205)">
        <g id="Group_775" data-name="Group 775">
          <g id="Group_774" data-name="Group 774">
            <path id="Path_4447" data-name="Path 4447" d="M228.411,96.206h-3.14V93.914h9.159v2.292H231.3v7.931h-2.892V96.206Z" transform="translate(-225.271 -93.914)" fill="#e0e0e0"/>
          </g>
        </g>
      </g>
      <g id="Group_779" data-name="Group 779" transform="translate(41.066 0.205)">
        <g id="Group_778" data-name="Group 778">
          <g id="Group_777" data-name="Group 777">
            <path id="Path_4448" data-name="Path 4448" d="M231.061,93.914h2.892v10.225h-2.892Z" transform="translate(-231.061 -93.914)" fill="#e0e0e0"/>
          </g>
        </g>
      </g>
      <g id="Group_782" data-name="Group 782" transform="translate(46.016 0.205)">
        <g id="Group_781" data-name="Group 781">
          <g id="Group_780" data-name="Group 780">
            <path id="Path_4449" data-name="Path 4449" d="M236.754,96.148V98.4h4.514v2.236h-4.514v3.506H233.86V93.914h8.02v2.234h-5.126Z" transform="translate(-233.86 -93.914)" fill="#e0e0e0"/>
          </g>
        </g>
      </g>
      <g id="Group_785" data-name="Group 785" transform="translate(55.396 0.205)">
        <g id="Group_784" data-name="Group 784">
          <g id="Group_783" data-name="Group 783">
            <path id="Path_4450" data-name="Path 4450" d="M239.163,93.914h2.894v10.225h-2.894Z" transform="translate(-239.163 -93.914)" fill="#e0e0e0"/>
          </g>
        </g>
      </g>
      <g id="Group_788" data-name="Group 788" transform="translate(59.823)">
        <g id="Group_787" data-name="Group 787">
          <g id="Group_786" data-name="Group 786">
            <path id="Path_4451" data-name="Path 4451" d="M241.666,99.115a5.289,5.289,0,0,1,5.625-5.317,5.411,5.411,0,0,1,4.4,1.928l-1.841,1.664a3.024,3.024,0,0,0-2.411-1.2,2.922,2.922,0,0,0,0,5.842,3.021,3.021,0,0,0,2.411-1.2l1.841,1.666a5.408,5.408,0,0,1-4.4,1.928A5.285,5.285,0,0,1,241.666,99.115Z" transform="translate(-241.666 -93.798)" fill="#e0e0e0"/>
          </g>
        </g>
      </g>
      <g id="Group_791" data-name="Group 791" transform="translate(69.728 0.205)">
        <g id="Group_790" data-name="Group 790">
          <g id="Group_789" data-name="Group 789">
            <path id="Path_4452" data-name="Path 4452" d="M255.344,102.151h-4.325l-.8,1.988h-2.95l4.514-10.225h2.848l4.528,10.225h-3.007Zm-.849-2.131-1.314-3.272-1.316,3.272Z" transform="translate(-247.266 -93.914)" fill="#e0e0e0"/>
          </g>
        </g>
      </g>
      <g id="Group_794" data-name="Group 794" transform="translate(80.964 0.205)">
        <g id="Group_793" data-name="Group 793">
          <g id="Group_792" data-name="Group 792">
            <path id="Path_4453" data-name="Path 4453" d="M256.758,96.206h-3.14V93.914h9.157v2.292H259.65v7.931h-2.892V96.206Z" transform="translate(-253.618 -93.914)" fill="#e0e0e0"/>
          </g>
        </g>
      </g>
      <g id="Group_797" data-name="Group 797" transform="translate(91.201 0.205)">
        <g id="Group_796" data-name="Group 796">
          <g id="Group_795" data-name="Group 795">
            <path id="Path_4454" data-name="Path 4454" d="M267.615,101.9v2.236h-8.209V93.914h8.02v2.234H262.27v1.725h4.54v2.161h-4.54v1.87Z" transform="translate(-259.406 -93.914)" fill="#e0e0e0"/>
          </g>
        </g>
      </g>
    </g>
    <g id="Group_805" data-name="Group 805" transform="translate(76.949 84.363)">
      <g id="Group_801" data-name="Group 801" transform="translate(0.034 0.032)">
        <g id="Group_800" data-name="Group 800">
          <g id="Group_799" data-name="Group 799">
            <circle id="Ellipse_127" data-name="Ellipse 127" cx="10.298" cy="10.298" r="10.298" fill="#e0e0e0"/>
          </g>
        </g>
      </g>
      <g id="Group_804" data-name="Group 804">
        <g id="Group_803" data-name="Group 803">
          <g id="Group_802" data-name="Group 802">
            <path id="Path_4455" data-name="Path 4455" d="M240.571,137.262a10.33,10.33,0,1,1,10.331-10.33A10.342,10.342,0,0,1,240.571,137.262Zm0-20.6a10.263,10.263,0,1,0,10.262,10.264A10.276,10.276,0,0,0,240.571,116.666Z" transform="translate(-230.24 -116.601)" fill="#e0e0e0"/>
          </g>
        </g>
      </g>
    </g>
    <g id="Group_810" data-name="Group 810" transform="translate(41.518 94.341)">
      <g id="Group_809" data-name="Group 809">
        <g id="Group_808" data-name="Group 808">
          <g id="Group_807" data-name="Group 807">
            <g id="Group_806" data-name="Group 806">
              <ellipse id="Ellipse_128" data-name="Ellipse 128" cx="12.406" cy="0.352" rx="12.406" ry="0.352" fill="#e0e0e0"/>
            </g>
          </g>
        </g>
      </g>
    </g>
    <g id="Group_815" data-name="Group 815" transform="translate(106.609 94.341)">
      <g id="Group_814" data-name="Group 814">
        <g id="Group_813" data-name="Group 813">
          <g id="Group_812" data-name="Group 812">
            <g id="Group_811" data-name="Group 811">
              <ellipse id="Ellipse_129" data-name="Ellipse 129" cx="13.88" cy="0.352" rx="13.88" ry="0.352" fill="#e0e0e0"/>
            </g>
          </g>
        </g>
      </g>
    </g>
    <g id="Group_820" data-name="Group 820" transform="translate(43.565 83.062)">
      <g id="Group_819" data-name="Group 819">
        <g id="Group_818" data-name="Group 818">
          <g id="Group_817" data-name="Group 817">
            <g id="Group_816" data-name="Group 816">
              <path id="Path_4456" data-name="Path 4456" d="M227.722,125.556a2.961,2.961,0,0,1-.149-.851,9.049,9.049,0,0,1,.141-2.476,8.869,8.869,0,0,1,1.565-3.621,2.107,2.107,0,0,1,1.06-.722,1.614,1.614,0,0,1,1.364.292,2.48,2.48,0,0,1,.863,2.689,8.031,8.031,0,0,1-1.516,2.681,13.5,13.5,0,0,1-2.278,2.4,6.831,6.831,0,0,1-3.267,1.505,5.273,5.273,0,0,1-3.744-.838,4.05,4.05,0,0,1-1.645-3.668,12.111,12.111,0,0,1,1.109-4.006,4.672,4.672,0,0,1,1.353-1.769,2.939,2.939,0,0,1,2.268-.566,2.216,2.216,0,0,1,1.7,1.691,4.623,4.623,0,0,1-.138,2.326,14.251,14.251,0,0,1-2.034,3.928,8.9,8.9,0,0,1-3.279,2.811,6.656,6.656,0,0,1-4.16.527,4.95,4.95,0,0,1-3.29-2.322,6.482,6.482,0,0,1-.874-3.721,9.853,9.853,0,0,1,.906-3.454c.463-.992,1.033-2.176,2.287-2.5a1.512,1.512,0,0,1,1.574.73,3.273,3.273,0,0,1,.412,1.523,10.093,10.093,0,0,1-1.226,5.069,10.467,10.467,0,0,1-2.464,3.062,9.458,9.458,0,0,1-2.082,1.348,3.514,3.514,0,0,1-.812.3,14.091,14.091,0,0,0,2.711-1.847,10.5,10.5,0,0,0,2.3-3.039,9.811,9.811,0,0,0,1.079-4.859,2.8,2.8,0,0,0-.357-1.275.98.98,0,0,0-1.031-.476,2.034,2.034,0,0,0-1.1.817,6.739,6.739,0,0,0-.761,1.387c-.89,1.962-1.289,4.519-.012,6.6a4.292,4.292,0,0,0,2.874,2,5.985,5.985,0,0,0,3.729-.493c2.372-1.143,4.017-3.69,4.933-6.311a3.943,3.943,0,0,0,.131-1.962,1.509,1.509,0,0,0-1.16-1.176,2.261,2.261,0,0,0-1.716.439,4.012,4.012,0,0,0-1.144,1.507,11.507,11.507,0,0,0-1.061,3.744,3.381,3.381,0,0,0,1.351,3.108,4.672,4.672,0,0,0,3.285.754,6.268,6.268,0,0,0,2.989-1.351,13.147,13.147,0,0,0,2.209-2.276,7.67,7.67,0,0,0,1.465-2.476,2.011,2.011,0,0,0-.647-2.2,1.3,1.3,0,0,0-1.861.327,8.877,8.877,0,0,0-1.6,3.423A13.63,13.63,0,0,0,227.722,125.556Z" transform="translate(-211.366 -115.865)" fill="#ebebeb"/>
            </g>
          </g>
        </g>
      </g>
    </g>
    <g id="Group_825" data-name="Group 825" transform="translate(108.712 75.723)">
      <g id="Group_824" data-name="Group 824">
        <g id="Group_823" data-name="Group 823">
          <g id="Group_822" data-name="Group 822">
            <g id="Group_821" data-name="Group 821">
              <path id="Path_4457" data-name="Path 4457" d="M270.607,127.1a1.066,1.066,0,0,1-.269.149c-.184.083-.455.221-.822.368a27.929,27.929,0,0,1-3.286,1.132,30.923,30.923,0,0,1-5.435,1,31.843,31.843,0,0,1-3.467.131c-1.224.023-2.551-.246-3.828-.1a2.63,2.63,0,0,0-1.664.849,1.58,1.58,0,0,0-.205,1.778,9.476,9.476,0,0,0,1.265,1.8q.727.9,1.525,1.79t1.668,1.776a5.539,5.539,0,0,0,1.882,1.45,1.675,1.675,0,0,0,1.953-.688,3.619,3.619,0,0,0,.585-2.358,56.193,56.193,0,0,1,2.584-23.576l.3-.884.354.861a19.481,19.481,0,0,1,1.388,6.15,20.178,20.178,0,0,1-1.406,8.573,19.787,19.787,0,0,1-2.008,3.743,6.033,6.033,0,0,1-3.237,2.729,1.984,1.984,0,0,1-2.124-.757,3.95,3.95,0,0,1-.557-2.057,21.508,21.508,0,0,1,2.269-10.979l.225-.444.294.4a4.742,4.742,0,1,1-7.252-.225,2.649,2.649,0,0,1,1.185-.821,1.272,1.272,0,0,1,1.387.382,1.9,1.9,0,0,1,.333,1.3,4,4,0,0,1-.258,1.189,15.155,15.155,0,0,1-3.808,5.948,14.158,14.158,0,0,1-1.434,1.2,3.223,3.223,0,0,1-.543.343,3.13,3.13,0,0,1,.483-.419c.318-.274.8-.676,1.36-1.259a15.452,15.452,0,0,0,3.6-5.929,2.431,2.431,0,0,0-.039-2.121c-.469-.587-1.42-.187-1.937.476a4.437,4.437,0,0,0-.318,5.227,4.18,4.18,0,1,0,6.757-4.917l.518-.05a20.957,20.957,0,0,0-2.154,10.659,3.347,3.347,0,0,0,.442,1.707,1.3,1.3,0,0,0,1.422.486,3.818,3.818,0,0,0,1.58-.93,10.487,10.487,0,0,0,1.247-1.532,19.162,19.162,0,0,0,1.926-3.61,19.531,19.531,0,0,0,1.351-8.274,18.838,18.838,0,0,0-1.334-5.92l.654-.023a56.061,56.061,0,0,0-2.62,23.337,4.229,4.229,0,0,1-.723,2.743,2.636,2.636,0,0,1-1.166.893,2.156,2.156,0,0,1-1.472-.012,6,6,0,0,1-2.1-1.608q-.876-.9-1.675-1.809t-1.526-1.824a9.725,9.725,0,0,1-1.32-1.932,2.1,2.1,0,0,1,.3-2.308,3.113,3.113,0,0,1,1.977-1,9.24,9.24,0,0,1,2.034.03c.64.053,1.263.1,1.87.111a32.158,32.158,0,0,0,8.826-.952,34.36,34.36,0,0,0,3.306-1.008A9.448,9.448,0,0,1,270.607,127.1Z" transform="translate(-248.198 -111.716)" fill="#ebebeb"/>
            </g>
          </g>
        </g>
      </g>
    </g>
  </g>
</svg>
